<?xml version="1.0" encoding="UTF-8"?>
<svg xmlns="http://www.w3.org/2000/svg" xmlns:xlink="http://www.w3.org/1999/xlink" width="16px" height="16px" viewBox="0 0 16 15" version="1.1">
<g id="surface1">
<path style=" stroke:none;fill-rule:evenodd;fill:rgb(100%,100%,100%);fill-opacity:1;" d="M 7.699219 4.152344 L 8.800781 4.152344 L 8.375 5.152344 L 7.277344 5.152344 C 7.277344 5.152344 6.261719 7.597656 6.074219 7.988281 C 5.886719 8.382812 6.332031 8.632812 6.691406 8.65625 C 8.476562 8.839844 10.179688 7.570312 10.492188 5.820312 C 10.765625 4.28125 9.867188 2.878906 8.421875 2.445312 Z M 7.699219 4.152344 "/>
<path style=" stroke:none;fill-rule:evenodd;fill:rgb(100%,100%,100%);fill-opacity:1;" d="M 7.699219 4.152344 L 8.800781 4.152344 L 8.375 5.152344 L 7.277344 5.152344 C 7.277344 5.152344 6.261719 7.597656 6.074219 7.988281 C 5.886719 8.382812 6.332031 8.632812 6.691406 8.65625 C 8.476562 8.839844 10.179688 7.570312 10.492188 5.820312 C 10.765625 4.28125 9.867188 2.878906 8.421875 2.445312 Z M 7.699219 4.152344 "/>
<path style=" stroke:none;fill-rule:evenodd;fill:rgb(100%,100%,100%);fill-opacity:1;" d="M 3.398438 5.117188 C 3.398438 5.175781 3.402344 5.234375 3.40625 5.292969 C 3.503906 3.246094 5.300781 1.617188 7.503906 1.617188 C 9.773438 1.617188 11.609375 3.339844 11.609375 5.464844 C 11.609375 7.53125 9.871094 9.21875 7.691406 9.308594 C 7.753906 9.3125 7.816406 9.3125 7.878906 9.3125 C 10.351562 9.3125 12.355469 7.433594 12.355469 5.117188 C 12.355469 2.796875 10.351562 0.917969 7.878906 0.917969 C 5.40625 0.917969 3.398438 2.796875 3.398438 5.117188 Z M 3.398438 5.117188 "/>
<path style=" stroke:none;fill-rule:evenodd;fill:rgb(100%,100%,100%);fill-opacity:1;" d="M 3.398438 5.117188 C 3.398438 5.175781 3.402344 5.234375 3.40625 5.292969 C 3.503906 3.246094 5.300781 1.617188 7.503906 1.617188 C 9.773438 1.617188 11.609375 3.339844 11.609375 5.464844 C 11.609375 7.53125 9.871094 9.21875 7.691406 9.308594 C 7.753906 9.3125 7.816406 9.3125 7.878906 9.3125 C 10.351562 9.3125 12.355469 7.433594 12.355469 5.117188 C 12.355469 2.796875 10.351562 0.917969 7.878906 0.917969 C 5.40625 0.917969 3.398438 2.796875 3.398438 5.117188 Z M 3.398438 5.117188 "/>
<path style=" stroke:none;fill-rule:evenodd;fill:rgb(100%,100%,100%);fill-opacity:1;" d="M 0.757812 12.621094 L 0.757812 13.703125 L 1.128906 13.703125 C 1.300781 13.703125 1.445312 13.65625 1.558594 13.554688 C 1.671875 13.457031 1.730469 13.328125 1.730469 13.164062 C 1.730469 13.003906 1.671875 12.875 1.5625 12.773438 C 1.449219 12.671875 1.300781 12.621094 1.125 12.621094 Z M 0.652344 12.542969 L 1.117188 12.542969 C 1.351562 12.542969 1.53125 12.597656 1.65625 12.714844 C 1.777344 12.832031 1.839844 12.980469 1.839844 13.164062 C 1.839844 13.34375 1.777344 13.492188 1.65625 13.609375 C 1.535156 13.726562 1.359375 13.785156 1.136719 13.785156 L 0.652344 13.785156 Z M 0.652344 12.542969 "/>
<path style=" stroke:none;fill-rule:evenodd;fill:rgb(100%,100%,100%);fill-opacity:1;" d="M 3.347656 12.542969 L 3.449219 12.542969 L 3.449219 13.210938 C 3.449219 13.394531 3.398438 13.535156 3.296875 13.632812 C 3.195312 13.734375 3.0625 13.785156 2.902344 13.785156 C 2.742188 13.785156 2.609375 13.734375 2.507812 13.636719 C 2.40625 13.539062 2.355469 13.402344 2.355469 13.230469 L 2.355469 12.542969 L 2.457031 12.542969 L 2.457031 13.230469 C 2.457031 13.375 2.5 13.488281 2.582031 13.570312 C 2.664062 13.65625 2.769531 13.695312 2.902344 13.695312 C 3.035156 13.695312 3.140625 13.652344 3.222656 13.570312 C 3.308594 13.488281 3.347656 13.367188 3.347656 13.214844 Z M 3.347656 12.542969 "/>
<path style=" stroke:none;fill-rule:evenodd;fill:rgb(100%,100%,100%);fill-opacity:1;" d="M 4.136719 13.199219 L 4.136719 13.703125 L 4.410156 13.703125 C 4.523438 13.703125 4.609375 13.679688 4.667969 13.636719 C 4.726562 13.589844 4.757812 13.527344 4.757812 13.453125 C 4.757812 13.28125 4.625 13.199219 4.367188 13.199219 Z M 4.136719 12.621094 L 4.136719 13.117188 L 4.277344 13.117188 C 4.519531 13.117188 4.640625 13.035156 4.640625 12.871094 C 4.640625 12.703125 4.519531 12.621094 4.273438 12.621094 Z M 4.035156 12.542969 L 4.308594 12.542969 C 4.457031 12.542969 4.566406 12.570312 4.640625 12.628906 C 4.714844 12.683594 4.75 12.761719 4.75 12.863281 C 4.75 12.984375 4.6875 13.074219 4.5625 13.140625 C 4.765625 13.179688 4.867188 13.285156 4.867188 13.453125 C 4.867188 13.554688 4.828125 13.636719 4.746094 13.695312 C 4.667969 13.753906 4.558594 13.785156 4.421875 13.785156 L 4.035156 13.785156 Z M 4.035156 12.542969 "/>
<path style=" stroke:none;fill-rule:evenodd;fill:rgb(100%,100%,100%);fill-opacity:1;" d="M 6.175781 13.277344 L 5.890625 12.699219 L 5.609375 13.277344 Z M 5.921875 12.542969 L 6.53125 13.785156 L 6.421875 13.785156 L 6.214844 13.359375 L 5.570312 13.359375 L 5.363281 13.785156 L 5.257812 13.785156 L 5.867188 12.542969 Z M 5.921875 12.542969 "/>
<path style=" stroke:none;fill-rule:evenodd;fill:rgb(100%,100%,100%);fill-opacity:1;" d="M 6.980469 13.785156 L 7.082031 13.785156 L 7.082031 12.542969 L 6.980469 12.542969 Z M 6.980469 13.785156 "/>
<path style=" stroke:none;fill-rule:evenodd;fill:rgb(100%,100%,100%);fill-opacity:1;" d="M 9.1875 12.542969 L 9.1875 12.621094 L 8.691406 12.621094 L 8.691406 13.785156 L 8.585938 13.785156 L 8.585938 12.621094 L 8.089844 12.621094 L 8.089844 12.542969 Z M 9.1875 12.542969 "/>
<path style=" stroke:none;fill-rule:evenodd;fill:rgb(100%,100%,100%);fill-opacity:1;" d="M 9.742188 12.621094 L 9.742188 13.109375 L 9.964844 13.109375 C 10.074219 13.109375 10.160156 13.085938 10.21875 13.042969 C 10.277344 13.003906 10.308594 12.941406 10.308594 12.863281 C 10.308594 12.789062 10.277344 12.726562 10.21875 12.6875 C 10.160156 12.644531 10.074219 12.621094 9.960938 12.621094 Z M 9.640625 12.542969 L 9.980469 12.542969 C 10.121094 12.542969 10.230469 12.570312 10.308594 12.628906 C 10.382812 12.6875 10.417969 12.765625 10.417969 12.863281 C 10.417969 13.007812 10.335938 13.105469 10.167969 13.164062 C 10.210938 13.183594 10.269531 13.246094 10.34375 13.355469 L 10.644531 13.785156 L 10.523438 13.785156 L 10.292969 13.445312 C 10.214844 13.328125 10.15625 13.257812 10.113281 13.230469 C 10.066406 13.203125 10.003906 13.1875 9.921875 13.1875 L 9.742188 13.1875 L 9.742188 13.785156 L 9.640625 13.785156 Z M 9.640625 12.542969 "/>
<path style=" stroke:none;fill-rule:evenodd;fill:rgb(100%,100%,100%);fill-opacity:1;" d="M 11.824219 13.273438 L 11.539062 12.6875 L 11.253906 13.273438 Z M 11.574219 12.542969 L 12.183594 13.785156 L 12.074219 13.785156 L 11.867188 13.359375 L 11.222656 13.359375 L 11.015625 13.785156 L 10.910156 13.785156 L 11.519531 12.542969 Z M 11.574219 12.542969 "/>
<path style=" stroke:none;fill-rule:evenodd;fill:rgb(100%,100%,100%);fill-opacity:1;" d="M 12.734375 12.621094 L 12.734375 13.703125 L 13.109375 13.703125 C 13.28125 13.703125 13.421875 13.65625 13.539062 13.554688 C 13.652344 13.457031 13.707031 13.328125 13.707031 13.164062 C 13.707031 13.003906 13.652344 12.875 13.539062 12.773438 C 13.425781 12.671875 13.28125 12.621094 13.101562 12.621094 Z M 12.632812 12.542969 L 13.097656 12.542969 C 13.332031 12.542969 13.511719 12.597656 13.632812 12.714844 C 13.757812 12.832031 13.820312 12.980469 13.820312 13.164062 C 13.820312 13.34375 13.757812 13.492188 13.636719 13.609375 C 13.511719 13.726562 13.339844 13.785156 13.113281 13.785156 L 12.632812 13.785156 Z M 12.632812 12.542969 "/>
<path style=" stroke:none;fill-rule:evenodd;fill:rgb(100%,100%,100%);fill-opacity:1;" d="M 15.085938 12.542969 L 15.085938 12.621094 L 14.46875 12.621094 L 14.46875 13.117188 L 15.070312 13.117188 L 15.070312 13.199219 L 14.46875 13.199219 L 14.46875 13.703125 L 15.101562 13.703125 L 15.101562 13.785156 L 14.367188 13.785156 L 14.367188 12.542969 Z M 15.085938 12.542969 "/>
<path style=" stroke:none;fill-rule:evenodd;fill:rgb(100%,100%,100%);fill-opacity:1;" d="M 1.136719 10.796875 L 1.261719 10.796875 L 1.261719 10.671875 L 1.136719 10.671875 Z M 0.867188 10.796875 L 0.992188 10.796875 L 0.992188 10.671875 L 0.867188 10.671875 Z M 0.976562 11.59375 C 1.261719 11.59375 1.242188 11.292969 1.238281 11.089844 C 1.109375 11.09375 0.78125 11.046875 0.761719 11.355469 C 0.761719 11.425781 0.804688 11.59375 0.976562 11.59375 Z M 0.957031 11.679688 C 0.800781 11.679688 0.648438 11.546875 0.652344 11.359375 C 0.660156 11.078125 0.898438 10.972656 1.238281 10.996094 L 1.238281 10.917969 L 1.347656 10.886719 L 1.347656 11.457031 C 1.355469 11.601562 1.4375 11.679688 1.582031 11.679688 L 1.691406 11.679688 L 1.691406 11.777344 L 1.554688 11.777344 C 1.332031 11.777344 1.265625 11.632812 1.25 11.519531 C 1.25 11.519531 1.171875 11.679688 0.957031 11.679688 Z M 0.957031 11.679688 "/>
<path style=" stroke:none;fill-rule:evenodd;fill:rgb(100%,100%,100%);fill-opacity:1;" d="M 2.769531 12.03125 L 2.894531 12.03125 L 2.894531 11.902344 L 2.769531 11.902344 Z M 2.539062 12.03125 L 2.664062 12.03125 L 2.664062 11.902344 L 2.539062 11.902344 Z M 1.683594 11.777344 L 1.683594 11.679688 L 2.746094 11.679688 C 2.894531 11.679688 2.980469 11.597656 2.980469 11.453125 L 2.980469 11.089844 L 3.089844 11.089844 L 3.089844 11.4375 C 3.089844 11.535156 3.066406 11.777344 2.773438 11.777344 Z M 1.683594 11.777344 "/>
<path style=" stroke:none;fill-rule:evenodd;fill:rgb(100%,100%,100%);fill-opacity:1;" d="M 3.675781 11.089844 L 3.78125 11.089844 L 3.78125 11.707031 C 3.78125 11.878906 3.625 12.027344 3.421875 12.027344 C 3.339844 12.027344 3.246094 11.988281 3.226562 11.976562 C 3.226562 11.976562 3.21875 11.929688 3.210938 11.882812 C 3.292969 11.925781 3.378906 11.929688 3.410156 11.929688 C 3.546875 11.929688 3.65625 11.851562 3.675781 11.707031 Z M 3.675781 11.089844 "/>
<path style=" stroke:none;fill-rule:evenodd;fill:rgb(100%,100%,100%);fill-opacity:1;" d="M 4.378906 11.777344 C 4.089844 11.777344 4.066406 11.535156 4.066406 11.4375 L 4.066406 10.671875 L 4.171875 10.671875 L 4.171875 11.453125 C 4.171875 11.597656 4.261719 11.679688 4.40625 11.679688 L 4.5 11.679688 L 4.5 11.777344 Z M 4.378906 11.777344 "/>
<path style=" stroke:none;fill-rule:evenodd;fill:rgb(100%,100%,100%);fill-opacity:1;" d="M 5.75 12.027344 L 5.875 12.027344 L 5.875 11.902344 L 5.75 11.902344 Z M 4.484375 11.777344 L 4.484375 11.679688 L 6.253906 11.679688 L 6.257812 11.574219 C 6.261719 11.328125 6.144531 11.042969 5.816406 11.042969 C 5.644531 11.042969 5.519531 11.113281 5.5 11.261719 L 5.398438 11.261719 C 5.417969 11.042969 5.605469 10.945312 5.816406 10.945312 C 6.203125 10.945312 6.367188 11.242188 6.367188 11.574219 L 6.367188 11.679688 L 6.660156 11.679688 L 6.660156 11.777344 Z M 4.484375 11.777344 "/>
<path style=" stroke:none;fill-rule:evenodd;fill:rgb(100%,100%,100%);fill-opacity:1;" d="M 7.632812 10.941406 L 7.757812 10.941406 L 7.757812 10.816406 L 7.632812 10.816406 Z M 7.363281 10.941406 L 7.484375 10.941406 L 7.484375 10.816406 L 7.363281 10.816406 Z M 6.640625 11.777344 L 6.640625 11.679688 L 7.410156 11.679688 C 7.554688 11.679688 7.644531 11.597656 7.644531 11.453125 L 7.644531 11.089844 L 7.75 11.089844 L 7.75 11.40625 C 7.753906 11.558594 7.835938 11.679688 8.019531 11.679688 L 8.101562 11.679688 L 8.101562 11.777344 L 8.035156 11.777344 C 7.882812 11.777344 7.765625 11.683594 7.726562 11.59375 C 7.691406 11.683594 7.613281 11.777344 7.4375 11.777344 Z M 6.640625 11.777344 "/>
<path style=" stroke:none;fill-rule:evenodd;fill:rgb(100%,100%,100%);fill-opacity:1;" d="M 8.089844 11.777344 L 8.089844 11.679688 L 8.675781 11.679688 C 8.820312 11.679688 8.910156 11.597656 8.910156 11.453125 L 8.910156 10.671875 L 9.015625 10.671875 L 9.015625 11.4375 C 9.015625 11.535156 8.992188 11.777344 8.703125 11.777344 Z M 8.089844 11.777344 "/>
<path style=" stroke:none;fill-rule:evenodd;fill:rgb(100%,100%,100%);fill-opacity:1;" d="M 9.300781 11.777344 L 9.40625 11.777344 L 9.40625 10.671875 L 9.300781 10.671875 Z M 9.300781 11.777344 "/>
<path style=" stroke:none;fill-rule:evenodd;fill:rgb(100%,100%,100%);fill-opacity:1;" d="M 10.902344 12.035156 L 11.027344 12.035156 L 11.027344 11.910156 L 10.902344 11.910156 Z M 10.65625 12.035156 L 10.777344 12.035156 L 10.777344 11.910156 L 10.65625 11.910156 Z M 12.414062 11.777344 C 12.121094 11.777344 12.097656 11.535156 12.097656 11.4375 L 12.097656 10.894531 L 11.484375 10.894531 C 11.335938 10.894531 11.285156 11.007812 11.449219 11.097656 C 11.644531 11.203125 11.816406 11.203125 11.828125 11.414062 C 11.839844 11.679688 11.5625 11.785156 11.359375 11.785156 L 10.460938 11.785156 C 10.121094 11.785156 9.972656 11.558594 9.964844 11.390625 C 9.960938 11.304688 9.972656 11.191406 10.035156 11.113281 C 10.058594 11.132812 10.09375 11.160156 10.109375 11.171875 C 10.066406 11.238281 10.058594 11.332031 10.066406 11.386719 C 10.078125 11.507812 10.1875 11.6875 10.46875 11.6875 L 11.347656 11.6875 C 11.523438 11.6875 11.722656 11.617188 11.722656 11.414062 C 11.722656 11.257812 11.585938 11.285156 11.414062 11.191406 C 11.109375 11.019531 11.273438 10.800781 11.464844 10.800781 L 12.203125 10.800781 L 12.203125 11.453125 C 12.203125 11.597656 12.292969 11.679688 12.4375 11.679688 L 13.671875 11.679688 L 13.671875 11.777344 Z M 12.414062 11.777344 "/>
<path style=" stroke:none;fill-rule:evenodd;fill:rgb(100%,100%,100%);fill-opacity:1;" d="M 13.9375 12.03125 L 14.0625 12.03125 L 14.0625 11.902344 L 13.9375 11.902344 Z M 13.664062 11.777344 L 13.664062 11.679688 L 13.835938 11.679688 C 13.980469 11.679688 14.070312 11.597656 14.070312 11.453125 L 14.070312 11.089844 L 14.175781 11.089844 L 14.175781 11.4375 C 14.175781 11.535156 14.152344 11.777344 13.863281 11.777344 Z M 13.664062 11.777344 "/>
<path style=" stroke:none;fill-rule:evenodd;fill:rgb(100%,100%,100%);fill-opacity:1;" d="M 14.988281 11.21875 C 14.976562 11.082031 14.90625 11.039062 14.78125 11.039062 C 14.667969 11.039062 14.578125 11.070312 14.5625 11.183594 L 14.449219 11.183594 C 14.476562 11.007812 14.613281 10.945312 14.78125 10.945312 C 14.980469 10.945312 15.097656 11.03125 15.097656 11.222656 L 15.097656 11.777344 L 14.425781 11.777344 L 14.425781 11.679688 L 14.988281 11.679688 Z M 14.988281 11.21875 "/>
</g>
</svg>
