<?xml version="1.0" encoding="UTF-8"?>
<svg xmlns="http://www.w3.org/2000/svg" xmlns:xlink="http://www.w3.org/1999/xlink" width="40px" height="40px" viewBox="0 0 40 40" version="1.1">
<g id="surface1">
<path style=" stroke:none;fill-rule:evenodd;fill:rgb(100%,100%,100%);fill-opacity:1;" d="M 19.25 11.070312 L 22.003906 11.070312 L 20.941406 13.734375 L 18.191406 13.734375 C 18.191406 13.734375 15.65625 20.257812 15.183594 21.304688 C 14.714844 22.355469 15.828125 23.023438 16.722656 23.082031 C 21.195312 23.570312 25.449219 20.1875 26.226562 15.527344 C 26.914062 11.414062 24.664062 7.679688 21.058594 6.519531 Z M 19.25 11.070312 "/>
<path style=" stroke:none;fill-rule:evenodd;fill:rgb(100%,100%,100%);fill-opacity:1;" d="M 19.25 11.070312 L 22.003906 11.070312 L 20.941406 13.734375 L 18.191406 13.734375 C 18.191406 13.734375 15.65625 20.257812 15.183594 21.304688 C 14.714844 22.355469 15.828125 23.023438 16.722656 23.082031 C 21.195312 23.570312 25.449219 20.1875 26.226562 15.527344 C 26.914062 11.414062 24.664062 7.679688 21.058594 6.519531 Z M 19.25 11.070312 "/>
<path style=" stroke:none;fill-rule:evenodd;fill:rgb(100%,100%,100%);fill-opacity:1;" d="M 8.5 13.644531 C 8.5 13.800781 8.507812 13.957031 8.511719 14.109375 C 8.757812 8.660156 13.25 4.316406 18.761719 4.316406 C 24.429688 4.316406 29.023438 8.910156 29.023438 14.578125 C 29.023438 20.085938 24.679688 24.582031 19.226562 24.824219 C 19.382812 24.832031 19.539062 24.835938 19.695312 24.835938 C 25.878906 24.835938 30.890625 19.828125 30.890625 13.644531 C 30.890625 7.460938 25.878906 2.449219 19.695312 2.449219 C 13.511719 2.449219 8.5 7.460938 8.5 13.644531 Z M 8.5 13.644531 "/>
<path style=" stroke:none;fill-rule:evenodd;fill:rgb(100%,100%,100%);fill-opacity:1;" d="M 8.5 13.644531 C 8.5 13.800781 8.507812 13.957031 8.511719 14.109375 C 8.757812 8.660156 13.25 4.316406 18.761719 4.316406 C 24.429688 4.316406 29.023438 8.910156 29.023438 14.578125 C 29.023438 20.085938 24.679688 24.582031 19.226562 24.824219 C 19.382812 24.832031 19.539062 24.835938 19.695312 24.835938 C 25.878906 24.835938 30.890625 19.828125 30.890625 13.644531 C 30.890625 7.460938 25.878906 2.449219 19.695312 2.449219 C 13.511719 2.449219 8.5 7.460938 8.5 13.644531 Z M 8.5 13.644531 "/>
<path style=" stroke:none;fill-rule:evenodd;fill:rgb(100%,100%,100%);fill-opacity:1;" d="M 1.890625 33.660156 L 1.890625 36.542969 L 2.828125 36.542969 C 3.253906 36.542969 3.609375 36.410156 3.898438 36.148438 C 4.179688 35.886719 4.324219 35.539062 4.324219 35.101562 C 4.324219 34.675781 4.183594 34.332031 3.902344 34.0625 C 3.621094 33.792969 3.257812 33.660156 2.808594 33.660156 Z M 1.636719 33.445312 L 2.796875 33.445312 C 3.382812 33.445312 3.828125 33.597656 4.136719 33.90625 C 4.445312 34.214844 4.601562 34.613281 4.601562 35.101562 C 4.601562 35.582031 4.449219 35.976562 4.140625 36.289062 C 3.835938 36.601562 3.402344 36.757812 2.839844 36.757812 L 1.636719 36.757812 Z M 1.636719 33.445312 "/>
<path style=" stroke:none;fill-rule:evenodd;fill:rgb(100%,100%,100%);fill-opacity:1;" d="M 8.371094 33.445312 L 8.625 33.445312 L 8.625 35.226562 C 8.625 35.714844 8.496094 36.09375 8.242188 36.359375 C 7.988281 36.625 7.65625 36.757812 7.253906 36.757812 C 6.851562 36.757812 6.523438 36.625 6.269531 36.363281 C 6.015625 36.101562 5.886719 35.742188 5.886719 35.285156 L 5.886719 33.445312 L 6.140625 33.445312 L 6.140625 35.277344 C 6.140625 35.667969 6.246094 35.972656 6.453125 36.191406 C 6.660156 36.410156 6.925781 36.523438 7.253906 36.523438 C 7.585938 36.523438 7.855469 36.410156 8.058594 36.1875 C 8.265625 35.964844 8.371094 35.648438 8.371094 35.242188 Z M 8.371094 33.445312 "/>
<path style=" stroke:none;fill-rule:evenodd;fill:rgb(100%,100%,100%);fill-opacity:1;" d="M 10.339844 35.195312 L 10.339844 36.542969 L 11.027344 36.542969 C 11.308594 36.542969 11.523438 36.484375 11.671875 36.363281 C 11.820312 36.238281 11.890625 36.078125 11.890625 35.871094 C 11.890625 35.421875 11.566406 35.195312 10.914062 35.195312 Z M 10.339844 33.660156 L 10.339844 34.980469 L 10.699219 34.980469 C 11.300781 34.980469 11.601562 34.757812 11.601562 34.320312 C 11.601562 33.878906 11.296875 33.660156 10.6875 33.660156 Z M 10.085938 33.445312 L 10.777344 33.445312 C 11.140625 33.445312 11.414062 33.519531 11.597656 33.671875 C 11.785156 33.824219 11.878906 34.035156 11.878906 34.300781 C 11.878906 34.621094 11.71875 34.867188 11.402344 35.039062 C 11.914062 35.148438 12.167969 35.429688 12.167969 35.878906 C 12.167969 36.148438 12.066406 36.359375 11.867188 36.519531 C 11.667969 36.679688 11.398438 36.757812 11.054688 36.757812 L 10.085938 36.757812 Z M 10.085938 33.445312 "/>
<path style=" stroke:none;fill-rule:evenodd;fill:rgb(100%,100%,100%);fill-opacity:1;" d="M 15.441406 35.410156 L 14.730469 33.859375 L 14.023438 35.410156 Z M 14.804688 33.445312 L 16.324219 36.757812 L 16.058594 36.757812 L 15.535156 35.621094 L 13.929688 35.621094 L 13.410156 36.757812 L 13.144531 36.757812 L 14.664062 33.445312 Z M 14.804688 33.445312 "/>
<path style=" stroke:none;fill-rule:evenodd;fill:rgb(100%,100%,100%);fill-opacity:1;" d="M 17.449219 36.757812 L 17.703125 36.757812 L 17.703125 33.445312 L 17.449219 33.445312 Z M 17.449219 36.757812 "/>
<path style=" stroke:none;fill-rule:evenodd;fill:rgb(100%,100%,100%);fill-opacity:1;" d="M 22.96875 33.445312 L 22.96875 33.65625 L 21.726562 33.65625 L 21.726562 36.757812 L 21.464844 36.757812 L 21.464844 33.65625 L 20.222656 33.65625 L 20.222656 33.445312 Z M 22.96875 33.445312 "/>
<path style=" stroke:none;fill-rule:evenodd;fill:rgb(100%,100%,100%);fill-opacity:1;" d="M 24.359375 33.660156 L 24.359375 34.953125 L 24.910156 34.953125 C 25.1875 34.953125 25.402344 34.898438 25.550781 34.785156 C 25.699219 34.671875 25.773438 34.511719 25.773438 34.304688 C 25.773438 34.101562 25.695312 33.941406 25.546875 33.828125 C 25.394531 33.714844 25.179688 33.660156 24.898438 33.660156 Z M 24.101562 33.445312 L 24.949219 33.445312 C 25.308594 33.445312 25.578125 33.519531 25.765625 33.675781 C 25.957031 33.828125 26.050781 34.039062 26.050781 34.300781 C 26.050781 34.683594 25.839844 34.953125 25.417969 35.105469 C 25.527344 35.160156 25.671875 35.328125 25.859375 35.613281 L 26.609375 36.757812 L 26.304688 36.757812 L 25.730469 35.851562 C 25.535156 35.546875 25.386719 35.355469 25.277344 35.28125 C 25.171875 35.207031 25.011719 35.167969 24.804688 35.167969 L 24.359375 35.167969 L 24.359375 36.757812 L 24.101562 36.757812 Z M 24.101562 33.445312 "/>
<path style=" stroke:none;fill-rule:evenodd;fill:rgb(100%,100%,100%);fill-opacity:1;" d="M 29.566406 35.398438 L 28.851562 33.839844 L 28.136719 35.398438 Z M 28.933594 33.445312 L 30.453125 36.757812 L 30.1875 36.757812 L 29.667969 35.621094 L 28.058594 35.621094 L 27.539062 36.757812 L 27.273438 36.757812 L 28.792969 33.445312 Z M 28.933594 33.445312 "/>
<path style=" stroke:none;fill-rule:evenodd;fill:rgb(100%,100%,100%);fill-opacity:1;" d="M 31.839844 33.660156 L 31.839844 36.542969 L 32.773438 36.542969 C 33.203125 36.542969 33.558594 36.410156 33.84375 36.148438 C 34.128906 35.886719 34.269531 35.539062 34.269531 35.101562 C 34.269531 34.675781 34.128906 34.332031 33.847656 34.0625 C 33.570312 33.792969 33.203125 33.660156 32.757812 33.660156 Z M 31.585938 33.445312 L 32.742188 33.445312 C 33.328125 33.445312 33.777344 33.597656 34.085938 33.90625 C 34.394531 34.214844 34.546875 34.613281 34.546875 35.101562 C 34.546875 35.582031 34.394531 35.976562 34.089844 36.289062 C 33.785156 36.601562 33.347656 36.757812 32.789062 36.757812 L 31.585938 36.757812 Z M 31.585938 33.445312 "/>
<path style=" stroke:none;fill-rule:evenodd;fill:rgb(100%,100%,100%);fill-opacity:1;" d="M 37.71875 33.445312 L 37.71875 33.65625 L 36.167969 33.65625 L 36.167969 34.984375 L 37.679688 34.984375 L 37.679688 35.199219 L 36.167969 35.199219 L 36.167969 36.542969 L 37.757812 36.542969 L 37.757812 36.757812 L 35.914062 36.757812 L 35.914062 33.445312 Z M 37.71875 33.445312 "/>
<path style=" stroke:none;fill-rule:evenodd;fill:rgb(100%,100%,100%);fill-opacity:1;" d="M 2.84375 28.792969 L 3.152344 28.792969 L 3.152344 28.453125 L 2.84375 28.453125 Z M 2.167969 28.792969 L 2.476562 28.792969 L 2.476562 28.453125 L 2.167969 28.453125 Z M 2.4375 30.910156 C 3.160156 30.910156 3.109375 30.117188 3.101562 29.574219 C 2.777344 29.582031 1.953125 29.460938 1.910156 30.285156 C 1.898438 30.464844 2.007812 30.910156 2.4375 30.910156 Z M 2.394531 31.148438 C 2.003906 31.148438 1.621094 30.785156 1.632812 30.289062 C 1.648438 29.539062 2.246094 29.265625 3.101562 29.324219 L 3.101562 29.109375 L 3.367188 29.027344 L 3.371094 30.554688 C 3.386719 30.933594 3.597656 31.148438 3.960938 31.148438 L 4.230469 31.148438 L 4.230469 31.402344 L 3.890625 31.402344 C 3.332031 31.402344 3.167969 31.019531 3.125 30.722656 C 3.125 30.722656 2.925781 31.148438 2.394531 31.148438 Z M 2.394531 31.148438 "/>
<path style=" stroke:none;fill-rule:evenodd;fill:rgb(100%,100%,100%);fill-opacity:1;" d="M 6.921875 32.078125 L 7.234375 32.078125 L 7.234375 31.742188 L 6.921875 31.742188 Z M 6.351562 32.078125 L 6.664062 32.078125 L 6.664062 31.742188 L 6.351562 31.742188 Z M 4.207031 31.402344 L 4.207031 31.148438 L 6.867188 31.148438 C 7.234375 31.148438 7.453125 30.929688 7.453125 30.539062 L 7.453125 29.574219 L 7.722656 29.574219 L 7.722656 30.5 C 7.722656 30.757812 7.664062 31.402344 6.9375 31.402344 Z M 4.207031 31.402344 "/>
<path style=" stroke:none;fill-rule:evenodd;fill:rgb(100%,100%,100%);fill-opacity:1;" d="M 9.1875 29.574219 L 9.453125 29.574219 L 9.453125 31.21875 C 9.453125 31.679688 9.058594 32.074219 8.550781 32.070312 C 8.347656 32.070312 8.117188 31.96875 8.0625 31.933594 C 8.0625 31.933594 8.046875 31.808594 8.03125 31.6875 C 8.234375 31.800781 8.449219 31.816406 8.519531 31.816406 C 8.867188 31.816406 9.144531 31.601562 9.1875 31.21875 Z M 9.1875 29.574219 "/>
<path style=" stroke:none;fill-rule:evenodd;fill:rgb(100%,100%,100%);fill-opacity:1;" d="M 10.953125 31.402344 C 10.226562 31.402344 10.167969 30.757812 10.167969 30.5 L 10.167969 28.460938 L 10.433594 28.460938 L 10.433594 30.539062 C 10.433594 30.929688 10.65625 31.148438 11.015625 31.148438 L 11.253906 31.148438 L 11.253906 31.402344 Z M 10.953125 31.402344 "/>
<path style=" stroke:none;fill-rule:evenodd;fill:rgb(100%,100%,100%);fill-opacity:1;" d="M 14.375 32.074219 L 14.6875 32.074219 L 14.6875 31.734375 L 14.375 31.734375 Z M 11.210938 31.402344 L 11.210938 31.148438 L 15.640625 31.148438 L 15.644531 30.867188 C 15.652344 30.207031 15.359375 29.441406 14.539062 29.441406 C 14.113281 29.441406 13.800781 29.636719 13.75 30.027344 L 13.496094 30.027344 C 13.539062 29.449219 14.015625 29.191406 14.539062 29.191406 C 15.507812 29.191406 15.917969 29.984375 15.917969 30.867188 L 15.917969 31.148438 L 16.648438 31.148438 L 16.648438 31.402344 Z M 11.210938 31.402344 "/>
<path style=" stroke:none;fill-rule:evenodd;fill:rgb(100%,100%,100%);fill-opacity:1;" d="M 19.078125 29.183594 L 19.390625 29.183594 L 19.390625 28.84375 L 19.078125 28.84375 Z M 18.402344 29.183594 L 18.714844 29.183594 L 18.714844 28.84375 L 18.402344 28.84375 Z M 16.601562 31.402344 L 16.601562 31.148438 L 18.523438 31.148438 C 18.886719 31.148438 19.109375 30.929688 19.109375 30.539062 L 19.109375 29.574219 L 19.375 29.574219 L 19.375 30.414062 C 19.386719 30.828125 19.59375 31.148438 20.046875 31.148438 L 20.25 31.148438 L 20.25 31.402344 L 20.089844 31.402344 C 19.710938 31.402344 19.410156 31.152344 19.3125 30.910156 C 19.226562 31.160156 19.035156 31.402344 18.589844 31.402344 Z M 16.601562 31.402344 "/>
<path style=" stroke:none;fill-rule:evenodd;fill:rgb(100%,100%,100%);fill-opacity:1;" d="M 20.226562 31.402344 L 20.226562 31.148438 L 21.683594 31.148438 C 22.050781 31.148438 22.273438 30.929688 22.273438 30.539062 L 22.273438 28.460938 L 22.539062 28.460938 L 22.539062 30.5 C 22.539062 30.757812 22.480469 31.402344 21.753906 31.402344 Z M 20.226562 31.402344 "/>
<path style=" stroke:none;fill-rule:evenodd;fill:rgb(100%,100%,100%);fill-opacity:1;" d="M 23.25 31.402344 L 23.515625 31.402344 L 23.515625 28.460938 L 23.25 28.460938 Z M 23.25 31.402344 "/>
<path style=" stroke:none;fill-rule:evenodd;fill:rgb(100%,100%,100%);fill-opacity:1;" d="M 27.253906 32.09375 L 27.566406 32.09375 L 27.566406 31.761719 L 27.253906 31.761719 Z M 26.636719 32.09375 L 26.941406 32.09375 L 26.941406 31.761719 L 26.636719 31.761719 Z M 31.03125 31.402344 C 30.300781 31.402344 30.242188 30.757812 30.242188 30.5 L 30.242188 29.046875 L 28.710938 29.046875 C 28.339844 29.046875 28.210938 29.359375 28.625 29.597656 C 29.109375 29.878906 29.542969 29.878906 29.566406 30.433594 C 29.59375 31.144531 28.902344 31.421875 28.394531 31.421875 L 26.148438 31.421875 C 25.300781 31.421875 24.933594 30.820312 24.914062 30.375 C 24.898438 30.148438 24.933594 29.839844 25.085938 29.636719 C 25.148438 29.691406 25.230469 29.761719 25.269531 29.792969 C 25.167969 29.972656 25.152344 30.222656 25.167969 30.367188 C 25.195312 30.6875 25.46875 31.164062 26.167969 31.164062 L 28.371094 31.164062 C 28.804688 31.164062 29.304688 30.980469 29.304688 30.433594 C 29.304688 30.023438 28.960938 30.097656 28.53125 29.839844 C 27.777344 29.382812 28.1875 28.804688 28.660156 28.804688 L 30.507812 28.804688 L 30.507812 30.539062 C 30.507812 30.929688 30.730469 31.148438 31.09375 31.148438 L 34.179688 31.148438 L 34.179688 31.402344 Z M 31.03125 31.402344 "/>
<path style=" stroke:none;fill-rule:evenodd;fill:rgb(100%,100%,100%);fill-opacity:1;" d="M 34.84375 32.078125 L 35.152344 32.078125 L 35.152344 31.742188 L 34.84375 31.742188 Z M 34.160156 31.402344 L 34.160156 31.148438 L 34.585938 31.148438 C 34.953125 31.148438 35.171875 30.929688 35.171875 30.539062 L 35.171875 29.574219 L 35.441406 29.574219 L 35.441406 30.5 C 35.441406 30.757812 35.378906 31.402344 34.65625 31.402344 Z M 34.160156 31.402344 "/>
<path style=" stroke:none;fill-rule:evenodd;fill:rgb(100%,100%,100%);fill-opacity:1;" d="M 37.46875 29.914062 C 37.441406 29.546875 37.265625 29.433594 36.957031 29.433594 C 36.671875 29.433594 36.441406 29.519531 36.40625 29.820312 L 36.121094 29.820312 C 36.191406 29.359375 36.53125 29.183594 36.957031 29.183594 C 37.449219 29.183594 37.746094 29.414062 37.746094 29.925781 L 37.746094 31.402344 L 36.0625 31.402344 L 36.0625 31.148438 L 37.46875 31.148438 Z M 37.46875 29.914062 "/>
</g>
</svg>
